<?xml version="1.0" encoding="UTF-8" standalone="no"?>
<!-- Created with Inkscape (http://www.inkscape.org/) -->

<svg
   width="20.521038mm"
   height="10.562166mm"
   viewBox="0 0 20.521038 10.562166"
   version="1.1"
   id="svg5"
   inkscape:version="1.1.1 (3bf5ae0d25, 2021-09-20)"
   sodipodi:docname="happy.svg"
   xmlns:inkscape="http://www.inkscape.org/namespaces/inkscape"
   xmlns:sodipodi="http://sodipodi.sourceforge.net/DTD/sodipodi-0.dtd"
   xmlns="http://www.w3.org/2000/svg"
   xmlns:svg="http://www.w3.org/2000/svg">
  <sodipodi:namedview
     id="namedview7"
     pagecolor="#ffffff"
     bordercolor="#666666"
     borderopacity="1.0"
     inkscape:pageshadow="2"
     inkscape:pageopacity="0.0"
     inkscape:pagecheckerboard="0"
     inkscape:document-units="mm"
     showgrid="false"
     fit-margin-top="0"
     fit-margin-left="0"
     fit-margin-right="0"
     fit-margin-bottom="0"
     inkscape:zoom="6.2217172"
     inkscape:cx="57.138567"
     inkscape:cy="45.325108"
     inkscape:window-width="1684"
     inkscape:window-height="1336"
     inkscape:window-x="5"
     inkscape:window-y="556"
     inkscape:window-maximized="0"
     inkscape:current-layer="layer1" />
  <defs
     id="defs2">
    <rect
       x="115.72368"
       y="266.16446"
       width="531.04309"
       height="253.30627"
       id="rect1287" />
  </defs>
  <g
     inkscape:label="Layer 1"
     inkscape:groupmode="layer"
     id="layer1"
     transform="translate(-30.639969,-72.882275)">
    <g
       aria-label="Happy"
       transform="scale(0.26458333)"
       id="text1285"
       style="font-size:40px;line-height:1.25;font-family:Ole;-inkscape-font-specification:Ole;white-space:pre;shape-inside:url(#rect1287)">
      <path
         d="m 121.40461,305.02057 q -2.88,0 -4.4,-2.64 -1.2,-2.16 -1.2,-5.28 0,-3.12 1.24,-5.84 1.6,-3.52 4.36,-3.52 0.8,0 1.44,0.76 0.76,-0.44 3.04,-0.44 -0.08,-0.92 -0.12,-1.72 -0.04,-0.8 -0.04,-1.52 0,-5.84 2.56,-7.92 0.68,-0.56 1.32,-0.56 1.2,0 1.2,0.84 0,0.28 -0.48,0.52 -0.6,0.36 -0.96,0.84 -1.8,2.2 -1.92,9.6 2.12,0.24 6.24,1.2 4.08,0.96 6.2,1.2 0.24,-2.04 0.68,-4.76 0.48,-2.72 1.28,-6.12 l 0.64,-2.72 q 0,-0.2 0.04,-0.44 0.08,-0.28 0.12,-0.64 0.2,-0.4 0.96,-0.4 1.48,0 1.48,0.72 0,1 -1.8,7.2 -0.64,2.32 -1.12,4.12 -0.44,1.8 -0.76,3.08 h 0.44 q 2.88,0 2.88,-1.28 0,-0.36 -0.24,-0.76 -0.24,-0.36 -0.24,-0.48 0,-0.52 0.48,-0.52 0.56,0 1.04,1.08 0.48,1.12 0.48,1.76 0,1.84 -2.52,1.84 -1.16,0 -2.6,-0.24 -0.28,1.44 -0.44,2.68 -0.12,1.24 -0.12,2.28 0,5 3.44,5 0.4,0 0.64,-0.24 0.36,-0.28 0.44,-0.28 0.44,0 0.44,0.6 0,0.96 -1.52,0.96 -4.4,0 -4.4,-7.76 0,-0.8 0.04,-1.68 0.04,-0.88 0.12,-1.84 -0.96,-0.2 -2.4,-0.56 -1.4,-0.36 -3.28,-0.76 -1.48,-0.32 -2.96,-0.44 -1.44,-0.16 -2.84,-0.16 h -0.84 q 0,0.48 0,1.2 0.04,0.72 0.08,1.72 0.12,1.96 0.12,2.96 0,4.04 -1.04,6.32 -1.52,3.04 -5.2,3.04 z m 0,-1.04 q 5.16,0 5.16,-7.68 0,-0.72 -0.12,-2.32 -0.12,-1.6 -0.4,-4.12 -0.72,0.04 -1.32,0.16 -0.6,0.12 -1.08,0.28 0.36,1.32 0.36,2.6 0,1.64 -0.56,2.96 -0.8,1.64 -2.24,1.64 -1.8,0 -1.8,-2.52 0,-1.52 0.72,-3.24 0.4,-0.92 0.84,-1.56 0.48,-0.64 1.08,-1.04 -0.28,-0.36 -0.64,-0.36 -2,0 -3.16,3.48 -0.84,2.52 -0.84,5.12 0,2.6 0.76,4.28 1,2.32 3.24,2.32 z m -0.2,-7.52 q 0.96,0 1.44,-1.4 0.32,-1.04 0.32,-2.16 0,-0.44 -0.08,-0.96 -0.04,-0.52 -0.2,-1.16 -0.88,0.48 -1.56,1.8 -0.68,1.28 -0.68,2.32 0,1.08 0.76,1.56 z"
         id="path14763" />
      <path
         d="m 148.28455,298.30057 q -0.76,0 -1.16,-0.64 -0.4,-0.64 -0.4,-1.44 0,-2.24 1.88,-5.24 2.04,-3.28 4.04,-3.28 1.36,0 1.36,0.92 0,0.4 -0.52,0.4 -0.04,0 -0.12,0 -0.08,-0.04 -0.2,-0.04 l -0.28,-0.08 q -1.48,0 -3.52,3.12 -1.92,2.88 -1.92,4.44 0,1.08 0.56,1.08 1.48,0 4.6,-5.76 0.08,-0.2 0.28,-0.6 0.2,-0.4 0.48,-0.96 0.2,-0.36 0.88,-0.36 0.28,0 0.28,0.2 l -0.16,1.56 q -0.12,1.12 -0.24,2 -0.12,0.84 -0.12,1.4 0,1.6 0.6,1.6 1.24,0 2.8,-4.88 0.12,-0.24 0.36,-1.16 0.04,-0.16 0.2,-0.16 0.24,0 0.24,0.32 0,0.92 -0.96,3.32 -1.04,2.44 -1.64,3 -0.4,0.32 -0.88,0.32 -1.84,0 -1.84,-3.76 0,-0.32 0,-0.68 0,-0.4 0.04,-0.8 -2.56,6.16 -4.64,6.16 z"
         id="path14765" />
      <path
         d="m 158.72448,312.34057 q -2.2,0 -2.2,-4.56 0,-1.56 0.24,-3.44 0.24,-1.84 0.76,-3.96 0.48,-1.96 1.04,-3.72 0.6,-1.8 1.28,-3.4 -0.12,-1.04 -0.12,-2.12 0,-4.72 0.92,-6.12 0.2,-0.36 0.6,-0.36 0.84,0 0.84,0.6 0,0.68 -0.72,2.92 -0.76,2.16 -0.76,3.44 2.52,-5 5.56,-5 1.68,0 2.64,1.44 0.8,1.24 0.8,2.96 0,4 -2.64,6.4 -0.72,0.68 -1.36,0.84 -0.52,0.2 -0.96,0.2 -2,0 -2,-1.96 0,-0.6 0.28,-1.56 0.36,-1.12 0.8,-1.12 0.16,0 0.16,0.28 0,0.24 -0.12,0.8 -0.16,0.52 -0.16,0.88 0,1.32 1.12,1.32 1.64,0 2.48,-2.04 0.68,-1.6 0.68,-3.44 0,-0.76 -0.08,-1.36 -0.08,-0.6 -0.28,-1.12 -0.56,-1.4 -1.8,-1.4 -2.72,0 -5.08,5.56 0.16,0.76 0.56,2.12 0.44,1.36 1.16,3.32 1.2,3.28 1.2,5.52 0,3.52 -2.08,6.24 -1.36,1.84 -2.76,1.84 z m 0.08,-1.76 q 0.48,0 1.04,-0.56 1.88,-2 1.88,-6.44 0,-2.96 -1.12,-6.08 -0.2,-0.56 -0.36,-1.16 -0.16,-0.6 -0.28,-1.24 -2.36,7 -2.36,12.68 0,2.8 1.2,2.8 z"
         id="path14767" />
      <path
         d="m 171.40446,312.34057 q -2.2,0 -2.2,-4.56 0,-1.56 0.24,-3.44 0.24,-1.84 0.76,-3.96 0.48,-1.96 1.04,-3.72 0.6,-1.8 1.28,-3.4 -0.12,-1.04 -0.12,-2.12 0,-4.72 0.92,-6.12 0.2,-0.36 0.6,-0.36 0.84,0 0.84,0.6 0,0.68 -0.72,2.92 -0.76,2.16 -0.76,3.44 2.52,-5 5.56,-5 1.68,0 2.64,1.44 0.8,1.24 0.8,2.96 0,4 -2.64,6.4 -0.72,0.68 -1.36,0.84 -0.52,0.2 -0.96,0.2 -2,0 -2,-1.96 0,-0.6 0.28,-1.56 0.36,-1.12 0.8,-1.12 0.16,0 0.16,0.28 0,0.24 -0.12,0.8 -0.16,0.52 -0.16,0.88 0,1.32 1.12,1.32 1.64,0 2.48,-2.04 0.68,-1.6 0.68,-3.44 0,-0.76 -0.08,-1.36 -0.08,-0.6 -0.28,-1.12 -0.56,-1.4 -1.8,-1.4 -2.72,0 -5.08,5.56 0.16,0.76 0.56,2.12 0.44,1.36 1.16,3.32 1.2,3.28 1.2,5.52 0,3.52 -2.08,6.24 -1.36,1.84 -2.76,1.84 z m 0.08,-1.76 q 0.48,0 1.04,-0.56 1.88,-2 1.88,-6.44 0,-2.96 -1.12,-6.08 -0.2,-0.56 -0.36,-1.16 -0.16,-0.6 -0.28,-1.24 -2.36,7 -2.36,12.68 0,2.8 1.2,2.8 z"
         id="path14769" />
      <path
         d="m 185.92444,315.38057 q -1.48,0 -2.88,-0.48 -1.4,-0.44 -2.68,-1.32 -2.88,-2.04 -2.88,-4.88 0,-3.04 2.8,-5.44 2.64,-2.28 5.8,-2.28 1.08,0 2,0.52 1.04,0.56 1.4,1.48 0.2,0.6 0.2,1.32 0,2.16 -1.28,3.88 -1.28,1.64 -3.36,2.32 -1.08,0.36 -1.84,0.36 -1.64,0 -1.64,-1.36 0,-1.72 1.36,-2.48 0.68,-0.4 1,-0.4 0.36,0 0.36,0.56 0,0.08 -0.96,1 -0.96,0.84 -0.96,1.28 0,0.32 0.52,0.32 1.24,0 2.84,-1 1.52,-0.88 2.36,-1.96 0.84,-1.08 0.84,-2.36 0,-1.08 -1.04,-1.68 -0.88,-0.52 -2.08,-0.52 -2.96,0 -5.64,2.48 -1.96,1.84 -1.96,3.48 v 0.2 q 0,2.36 2.4,3.68 1.92,1.08 4.48,1.08 1.84,0 3.16,-0.56 2.52,-1.04 3.24,-5.32 0.2,-1.04 0.28,-2.72 0.08,-1.68 0.08,-3.92 v -9.4 q -3.28,7.2 -6.4,7.2 -1.12,0 -1.12,-1.36 0,-1.08 0.84,-3.16 0.84,-2.12 0.84,-3.2 0,-1.76 -1.12,-1.76 -1.24,0 -1.24,1.6 0,0.04 0,0.08 0.04,0 0.04,0.04 v 0.12 q 0,0.2 -0.12,0.2 -0.16,0 -0.4,-0.48 -0.12,-0.44 -0.12,-0.68 0,-0.76 0.64,-1.24 0.64,-0.56 1.36,-0.56 1.88,0 1.88,2.56 0,1.16 -0.64,3.2 -0.6,2.08 -0.6,3.16 0,0.52 0.32,0.52 1.24,0 3.24,-3.2 0.72,-1.16 1.28,-2.24 0.6,-1.08 1.04,-2.08 l 0.36,-1.12 q 0.36,-0.76 0.64,-0.8 0.2,-0.12 0.4,-0.12 0.4,0 0.4,0.28 0,0.16 -0.04,0.36 0,0.2 -0.04,0.44 -0.12,0.52 -0.12,0.8 -0.08,0.52 -0.12,1.4 -0.04,0.84 -0.04,2 0,0.44 0,1.12 0.04,0.68 0.04,1.6 0.04,0.88 0.04,1.56 0,0.68 0,1.16 v 3.24 q 0,0.32 -0.04,0.76 0,0.48 0,1.12 v 1.36 q 0,4.16 -1.44,6.8 -1.88,3.44 -5.68,3.44 z"
         id="path14771" />
    </g>
  </g>
</svg>
